<?xml version="1.0" standalone="no"?>
<!DOCTYPE svg PUBLIC "-//W3C//DTD SVG 20010904//EN"
 "http://www.w3.org/TR/2001/REC-SVG-20010904/DTD/svg10.dtd">
<svg version="1.0" xmlns="http://www.w3.org/2000/svg"
 width="1000.000000pt" height="1000.000000pt" viewBox="0 0 1000.000000 1000.000000"
 preserveAspectRatio="xMidYMid meet">
<metadata>
Created by potrace 1.11, written by Peter Selinger 2001-2013
</metadata>
<g transform="translate(0.000000,1000.000000) scale(0.100000,-0.100000)"
fill="#000000" stroke="none">
<path d="M5176 9640 c-781 -42 -1533 -283 -2236 -718 -556 -345 -1057 -839
-1412 -1392 -384 -599 -634 -1276 -717 -1940 -89 -711 -29 -1361 186 -2035 78
-244 264 -661 408 -910 357 -621 839 -1135 1433 -1528 628 -416 1322 -674
2052 -762 284 -34 742 -36 1040 -5 1201 126 2313 723 3097 1661 78 94 253 328
253 339 0 7 -293 230 -303 230 -3 0 -34 -39 -68 -88 -662 -923 -1704 -1566
-2814 -1736 -453 -70 -960 -64 -1407 14 -745 132 -1486 485 -2067 985 -575
496 -1025 1185 -1270 1948 -136 421 -195 810 -195 1277 0 273 11 432 45 650
164 1054 726 2034 1539 2684 557 446 1258 766 1940 885 464 82 961 87 1420 16
772 -119 1511 -462 2125 -986 231 -197 504 -495 675 -736 36 -51 68 -92 72
-93 3 0 76 46 162 101 l156 102 -22 31 c-742 1059 -1857 1763 -3100 1956 -288
45 -693 65 -992 50z"/>
<path d="M5170 8893 c-19 -1 -87 -8 -150 -14 -743 -68 -1475 -376 -2090 -878
-140 -114 -394 -369 -511 -511 -449 -546 -739 -1178 -848 -1845 -70 -428 -70
-892 0 -1320 122 -750 482 -1468 1020 -2038 318 -336 690 -608 1124 -822 516
-253 1011 -374 1610 -392 757 -22 1479 166 2121 552 307 185 539 370 794 631
175 179 421 484 420 519 -1 10 -268 211 -292 220 -8 3 -35 -26 -68 -72 -495
-696 -1279 -1213 -2110 -1393 -952 -206 -1945 -11 -2762 542 -627 425 -1100
1054 -1349 1798 -77 230 -123 433 -161 710 -20 149 -17 692 5 850 59 419 167
766 357 1148 397 798 1037 1375 1895 1710 245 96 549 172 825 207 176 23 536
31 712 16 1038 -88 1973 -612 2582 -1448 l67 -92 132 86 c73 47 144 94 159
105 l27 19 -71 97 c-336 457 -748 829 -1218 1099 -620 357 -1262 527 -1970
521 -118 0 -231 -3 -250 -5z"/>
<path d="M5305 8153 c-657 -26 -1264 -242 -1790 -638 -596 -449 -1035 -1136
-1185 -1855 -108 -523 -86 -1089 62 -1585 148 -500 426 -964 798 -1335 496
-495 1133 -809 1828 -900 316 -42 751 -25 1071 41 615 126 1243 481 1656 935
150 164 305 363 305 388 -1 9 -274 204 -300 214 -4 2 -32 -30 -61 -70 -378
-522 -957 -915 -1570 -1067 -248 -61 -415 -81 -685 -82 -465 0 -855 91 -1261
297 -666 338 -1171 930 -1402 1644 -186 575 -169 1257 45 1823 357 942 1201
1629 2189 1781 248 38 595 39 847 1 520 -78 1014 -309 1421 -663 151 -132 322
-320 422 -465 22 -31 45 -55 51 -53 26 10 304 196 304 204 0 5 -33 53 -73 108
-259 351 -572 631 -957 856 -336 196 -719 331 -1100 388 -125 18 -447 42 -515
38 -16 -1 -61 -3 -100 -5z"/>
<path d="M5225 7404 c-349 -36 -637 -123 -935 -280 -661 -350 -1118 -984
-1251 -1739 -27 -152 -37 -482 -20 -646 59 -567 334 -1127 743 -1513 361 -341
826 -567 1323 -642 168 -26 533 -26 695 -1 435 68 783 217 1145 490 111 84
347 322 433 439 40 53 72 100 72 105 0 11 -299 228 -304 222 -2 -2 -32 -42
-66 -89 -124 -166 -329 -358 -515 -480 -122 -80 -346 -186 -485 -231 -408
-130 -871 -130 -1274 2 -639 209 -1172 777 -1335 1425 -50 195 -64 338 -58
574 5 194 17 299 50 435 75 311 215 580 433 834 424 493 987 741 1629 718 325
-12 605 -86 882 -232 267 -141 480 -320 665 -560 39 -49 74 -91 78 -93 5 -2
77 42 160 98 l151 101 -32 46 c-72 105 -194 245 -301 349 -367 352 -802 567
-1314 649 -95 16 -480 28 -569 19z"/>
</g>
</svg>
